<svg xmlns="http://www.w3.org/2000/svg" viewBox="0 0 1739.09 324.07"><defs><style>.cls-1{fill:#fff;}</style></defs><title>белый на прозрачном_1</title><g id="Слой_2" data-name="Слой 2"><g id="Слой_1-2" data-name="Слой 1"><path class="cls-1" d="M362.73,5.23V165.91c0,23.66-7.8,43.58-23.17,59.2s-34.38,23.56-56.43,23.56h-3.51c-22.28,0-41.38-7.87-56.77-23.38s-23.18-35.24-23.18-58.68V5.23h17.6v161c0,19,6.21,35,18.46,47.44s27.59,18.78,45.64,18.78,33.35-6.26,45.48-18.6,18.29-28.39,18.29-47.62V5.23Zm35.19,0V21.46H458.7V274.79h17.6V21.46h60.08V5.27ZM595.07,113.53,719.26,5.27H696.07L588.81,98.32v-93H571.57V274.79h17.59v-142L724.54,273.87l.89.92h23.76ZM884.89,21.46V5.27H784.37V274.79H884.89V258.6H802V175h69.22V158.82H802V21.46Zm289-16.19L1057,245.63,940.21,7l-.82-1.68H920.08l135.85,279.36L1191.78,5.27Zm53.1,0V274.79h17.6V5.27Zm192.82,10.92c24.79,0,48.22,7.39,69.63,22l4.69,3.19V21l-1.49-.87C1469.77,6.76,1445.27,0,1419.79,0c-38.13,0-71.35,13.83-98.74,41.11s-41.29,60.32-41.29,98.22a135.62,135.62,0,0,0,18.49,68.43,143,143,0,0,0,50.41,51.49,131.27,131.27,0,0,0,69,19.41h3.87a133.78,133.78,0,0,0,71.13-20.12l1.43-.88V237.31l-4.69,3.19c-21.4,14.58-44.83,22-69.63,22-33.45,0-62.52-12.23-86.42-36.36s-36-53.38-36-87,12.12-62.76,36-86.78S1386.35,16.19,1419.79,16.19ZM1721.5,5.27V97.18c-9.71,8.44-23.67,11.25-37.19,13.95l-.93.19c-3.43.69-6.86,1.34-10.28,2-13.21,2.53-26.86,5.15-40.3,9.42A294.14,294.14,0,0,0,1546.9,167V5.27h-17.6V274.8h17.6V189.29c25.6-21.43,58.69-39.54,91.2-49.87,12.45-4,25-6.36,38.29-8.91q5.2-1,10.42-2l.93-.19c11-2.19,23-4.61,33.76-10.18V274.8h17.59V5.27ZM362.75,268c-20.67,22.7-52.47,42.28-88.51,37.92-53.23-6.45-98-49-137.5-86.57q-5-4.75-9.87-9.36a1158.15,1158.15,0,0,1-96.48-102.5L147.69,5.27H124.5L17.24,98.32v-93H0V274.8H17.6V119.53a1176.19,1176.19,0,0,0,97.26,103.23q4.85,4.58,9.82,9.31c41.47,39.43,88.47,84.12,147.46,91.26a100.21,100.21,0,0,0,12.27.74c43.57,0,80.23-28,101-56Z"/></g></g></svg>