<svg xmlns="http://www.w3.org/2000/svg" viewBox="0 0 3000 3000"><defs><style>.cls-1{fill:#fff;}.cls-2{fill:#231f20;}</style></defs><title>черный на белом_1</title><g id="Слой_2" data-name="Слой 2"><g id="Слой_1-2" data-name="Слой 1"><rect class="cls-1" width="3000" height="3000"/><path class="cls-2" d="M993.19,1343.19v160.69c0,23.66-7.8,43.57-23.18,59.2s-34.38,23.56-56.42,23.56h-3.52c-22.28,0-41.38-7.87-56.76-23.38s-23.18-35.24-23.18-58.68V1343.19h17.59v161c0,19,6.21,35,18.47,47.44s27.58,18.78,45.64,18.78,33.34-6.26,45.47-18.61,18.29-28.38,18.29-47.61v-161Zm35.18,0v16.19h60.79v253.33h17.59V1359.43h60.09v-16.19Zm197.16,108.25,124.18-108.25h-23.18l-107.26,93v-93H1202v269.52h17.6V1470.7L1355,1611.84l.88.92h23.76Zm289.81-92.06v-16.19H1414.83v269.52h100.51v-16.19h-82.92V1513h69.22v-16.19h-69.22V1359.43Zm289-16.19-116.89,240.35-116.76-238.67-.82-1.68h-19.32l135.85,279.35,135.86-279.35Zm53.11,0v269.52H1875V1343.24Zm192.81,10.92c24.79,0,48.22,7.39,69.64,22l4.69,3.19v-20.39l-1.49-.87c-22.85-13.33-47.36-20.08-72.84-20.08-38.12,0-71.35,13.83-98.74,41.1s-41.29,60.33-41.29,98.23a135.55,135.55,0,0,0,18.5,68.43,143,143,0,0,0,50.41,51.48,131.24,131.24,0,0,0,69,19.41H2052a133.81,133.81,0,0,0,71.14-20.12l1.43-.88v-20.34l-4.69,3.19c-21.41,14.57-44.84,22-69.64,22-33.44,0-62.51-12.24-86.41-36.36s-36-53.39-36-87,12.12-62.76,36-86.78S2016.8,1354.16,2050.24,1354.16ZM2352,1343.23v91.91c-9.71,8.44-23.67,11.25-37.2,13.95l-.92.19c-3.43.69-6.87,1.34-10.29,2-13.21,2.53-26.86,5.15-40.29,9.42a294.2,294.2,0,0,0-85.91,44.23v-161.7h-17.59v269.53h17.59v-85.51c25.61-21.43,58.7-39.54,91.2-49.87,12.46-4,25-6.36,38.29-8.91q5.2-1,10.42-2l.93-.19c10.95-2.19,22.95-4.61,33.77-10.18v156.69h17.59V1343.23ZM993.2,1606c-20.67,22.7-52.46,42.29-88.51,37.92-53.22-6.45-98-49-137.5-86.57l-9.86-9.36a1156.67,1156.67,0,0,1-96.48-102.5l117.29-102.26H755l-107.26,93v-93H630.45v269.53h17.61V1457.49a1176.05,1176.05,0,0,0,97.25,103.23l9.83,9.31c41.46,39.43,88.46,84.12,147.46,91.26a100.09,100.09,0,0,0,12.27.74c43.56,0,80.23-28,101-56Z"/></g></g></svg>