<svg xmlns="http://www.w3.org/2000/svg" viewBox="0 0 3000 3000"><defs><style>.cls-1{fill:#7a5c51;}.cls-2{fill:#dbb0a1;}</style></defs><title>бежевый на коричневом</title><g id="Слой_2" data-name="Слой 2"><g id="Слой_1-2" data-name="Слой 1"><rect class="cls-1" width="3000" height="3000"/><path class="cls-2" d="M1466.26,1737q-18.59,0-30.59-9.6t-12-24.6q0-16.59,14.59-33.6,20.61-24.2,51.61-41,33-17.79,65.59-19.8a32.73,32.73,0,0,1,3.5-.2h3.11q9.79,0,14.6,2.4c5.59-5.6,9.2-8.4,10.79-8.4a1.24,1.24,0,0,1,1.41,1.4,3.94,3.94,0,0,1-2,3.2l-6.8,6q4.59,4,4.6,12.4,0,13.2-13.21,25-11.39,10.2-20,10.2c-3.2,0-4.79-1.46-4.79-4.4a8.12,8.12,0,0,1,.2-2q3-16.59,25.2-39-5.41-3.6-16.2-3-28.41,1.8-63.8,22.6-29.21,17.4-41.81,33.4-19.59,25-19.59,40.8,0,22,34,22a141.36,141.36,0,0,0,34-4.2,45.37,45.37,0,0,0,4.79-1.3c1.87-.6,4-1.23,6.41-1.9l8.09-2.7q4.5-1.5,9.91-3.1a131.1,131.1,0,0,0,14.59-5.8q7.82-3.6,16.8-8.2l14.41-7.6q7.18-3.8,14.4-7.8a5.08,5.08,0,0,1,2.39-.8c1.07,0,1.61.4,1.61,1.2q0,2-3,3.6l-15.5,8.8q-6.71,3.81-11.7,6.4-9.81,5.2-18.3,9.2t-15.7,6.8q-18.61,7.2-28.2,9.6A140.36,140.36,0,0,1,1466.26,1737Zm92.41-83.4q5,0,11.79-8.6,7.61-9.39,7.61-17.8a15,15,0,0,0-3-9.6q-14.21,14.2-18.81,31.6a2.89,2.89,0,0,1-.09.6,1.12,1.12,0,0,0,.09.8C1556.26,1652.6,1557.07,1653.6,1558.67,1653.6Zm21.2,66.2c-.94,0-1.2-.4-.8-1.2q7.4-13.8,16.69-28.5t20.91-30.5q19.59-26.4,35.4-45.6.79-1.39,9-4.4,7.59-3.19,10.39-3.2c1.87,0,2.8.67,2.8,2s-1.06,1.8-3.19,1.8-6.47,3.07-12.61,9.2q-7,6.6-33.39,39.4-7.41,9.21-13.5,17.9t-10.9,17.1q48.19-33.19,53.59-33.2,3.4,0,6.61,6a101,101,0,0,0-20.61,30c-1.86,4.14-2.8,7.14-2.8,9,0,2.4,1.21,3.6,3.61,3.6q4.4,0,15.39-5.6l15.21-7.8c.53-.13.79.14.79.8a6.42,6.42,0,0,1-.59,2.4,3.37,3.37,0,0,1-1.41,1.8l-13.39,8.4a55,55,0,0,1-17.4,7.4q-12.4-4.8-12.41-10.8a4.57,4.57,0,0,1,.11-.9,7.36,7.36,0,0,1,.3-1.1,71.26,71.26,0,0,1,4.7-9.3q3.09-5.3,7.5-11.9,7-10.59,6.2-11.4a1.2,1.2,0,0,0-.81-.2q-3.59,0-18.39,10-12.21,8.61-16.8,12.6-13.6,12.4-18.4,22.2Q1582.05,1719.81,1579.87,1719.8Zm95.59-1.2q-7.2,0-7.2-7.6,0-11.79,11.4-25c1.47-1.86,3.23-4.1,5.3-6.7s4.43-5.43,7.1-8.5c.27,0-.93-.46-3.6-1.4-1.73-.53-2.6-1.46-2.6-2.8,0-1.6,1.13-2.4,3.4-2.4a51.79,51.79,0,0,0,10.6-1.8c.8-.53,1.63-1.06,2.5-1.6s1.77-1.06,2.7-1.6a8.17,8.17,0,0,1,4.4-1.4,7,7,0,0,1,2.5.5c.87.34,1.83.77,2.9,1.3l3.9,2.1a27.5,27.5,0,0,0,2.7,1.3l21.2-.2c2.27,0,3.4.54,3.4,1.6s-1.13,1.74-3.4,2a54.16,54.16,0,0,1-7.6.6q.2.81.3,1.5a7.86,7.86,0,0,1,.1,1.1q0,6.4-7.6,16.4a74.21,74.21,0,0,1-14,14.2q-17.59,13.41-31.6,17.2A22.86,22.86,0,0,1,1675.46,1718.6Zm2-4.8a4.34,4.34,0,0,0,.9-.1c.33-.06.77-.16,1.3-.3q13.2-3.8,29.8-16.4a45.72,45.72,0,0,0,5.9-5.2q2.9-3,5.7-6.4,6.6-8.4,6.6-13.6a5.16,5.16,0,0,0-1.4-3.8h-9a35,35,0,0,0-7.5.7,28.29,28.29,0,0,0-5.3,1.7q-5.81,4.41-17.2,17.6a92.94,92.94,0,0,0-7.8,11q-5,8.2-5,11v.4Q1674.46,1713.81,1677.46,1713.8Zm69,4.6q-12.8,0-12.8-10.4a20.58,20.58,0,0,1,1.2-6.4q3.6-11,17-22.6a108.78,108.78,0,0,1,27.2-18.4,40.18,40.18,0,0,1,17.4-4.2q4.61,0,4.6,2.4,0,1.6-2.8,4.4-2.6,2.4-3.6,1.8a15.6,15.6,0,0,0-7-1.8,16,16,0,0,0-7.2,1.8,92,92,0,0,0-23,16.8q-10.2,10.6-13.6,20.6a20,20,0,0,0-1,5q0,6,5,6,5.81,0,17.1-5.1a299.18,299.18,0,0,0,27.9-14.9c.4-.13.67.07.8.6v.6a4.88,4.88,0,0,1-1.4,3.6,50,50,0,0,1-6.9,4.6q-4.5,2.61-11.1,6-16.4,8.4-23.8,9.4a9.69,9.69,0,0,1-2,.2Zm48.8.2q-7.2,0-7.2-7.6,0-11.79,11.4-25c1.46-1.86,3.23-4.1,5.3-6.7s4.43-5.43,7.1-8.5c.26,0-.94-.46-3.6-1.4-1.74-.53-2.6-1.46-2.6-2.8,0-1.6,1.13-2.4,3.4-2.4a51.89,51.89,0,0,0,10.6-1.8c.8-.53,1.63-1.06,2.5-1.6s1.76-1.06,2.7-1.6a8.14,8.14,0,0,1,4.4-1.4,7,7,0,0,1,2.5.5c.86.34,1.83.77,2.9,1.3q2.19,1.2,3.9,2.1a27.5,27.5,0,0,0,2.7,1.3l21.2-.2c2.26,0,3.4.54,3.4,1.6s-1.14,1.74-3.4,2a54.28,54.28,0,0,1-7.6.6q.2.81.3,1.5a9.78,9.78,0,0,1,.1,1.1q0,6.4-7.6,16.4a74.5,74.5,0,0,1-14,14.2q-17.61,13.41-31.6,17.2A22.91,22.91,0,0,1,1795.26,1718.6Zm2-4.8a4.49,4.49,0,0,0,.9-.1c.33-.06.76-.16,1.3-.3q13.2-3.8,29.8-16.4a46.39,46.39,0,0,0,5.9-5.2q2.89-3,5.7-6.4,6.6-8.4,6.6-13.6a5.16,5.16,0,0,0-1.4-3.8h-9a34.9,34.9,0,0,0-7.5.7,28.05,28.05,0,0,0-5.3,1.7q-5.8,4.41-17.2,17.6a92.94,92.94,0,0,0-7.8,11q-5,8.2-5,11v.4Q1794.26,1713.81,1797.26,1713.8Zm71.4,5q-2.61.6-6.6-2.2a12.24,12.24,0,0,1-5.2-8.8q4-11.79,20.6-35.2t45.6-58.6q.8-1.39,9-4.4,7.59-3.19,10.4-3.2c1.86,0,2.8.67,2.8,2s-1.07,1.8-3.2,1.8-6.47,3.07-12.6,9.2q-11.2,10.8-35.2,42.4-27.6,36.21-27.6,45.2a10.05,10.05,0,0,0,1,4.2,3.32,3.32,0,0,0,3.2,2.2,16.24,16.24,0,0,0,4.7-1.4q3.5-1.39,7.7-3.4t8-4.1q3.79-2.1,5.6-3.3c0,2.67-.34,4.2-1,4.6-1.07.54-2.1,1.07-3.1,1.6s-2,1.14-3.1,1.8l-3,1.7c-1.07.6-2.14,1.24-3.2,1.9A53.68,53.68,0,0,1,1868.66,1718.8Zm31.8-.6q-4.61,0-4.6-5.4,0-3.79,2.8-9.8,7.2-13.39,23.8-27.6,20.19-16.8,32.8-16.8,7.8,0,10.8,3a16.22,16.22,0,0,1,9.8-3.4c.66,0,1,.2,1,.6a1.16,1.16,0,0,1-.4.8,76.34,76.34,0,0,0-6.3,8.6,138.14,138.14,0,0,0-7.5,13.4q-9.4,18.4-9.4,27a7.56,7.56,0,0,0,.2,2.4v.2a5.36,5.36,0,0,1-1.2,2.9c-.8,1.14-1.6,1.7-2.4,1.7-1.6,0-2.4-2.66-2.4-8a57.35,57.35,0,0,1,6.2-26l-17,14.2a200.25,200.25,0,0,1-17.3,13.1,105.63,105.63,0,0,1-13.3,7.7A12.37,12.37,0,0,1,1900.46,1718.2Zm9-9.2a5.25,5.25,0,0,0,2.6-.8,58.53,58.53,0,0,0,9-5.2,150.22,150.22,0,0,0,13.8-10.4,189.28,189.28,0,0,0,15.3-13.9q6.09-6.3,8.9-9.5a4.68,4.68,0,0,0-4.8-3.4q-7,0-22.4,12-17.4,14-22.8,23a12.37,12.37,0,0,0-1.8,6A1.94,1.94,0,0,0,1909.46,1709Zm71.59,8.8a23.54,23.54,0,0,1-7.8-1.8c-4.79-1.86-7.2-4.53-7.2-8a16.66,16.66,0,0,1,1.61-5.8q1.59-3.39,4.09-8t6.11-10.4l8-13a5.2,5.2,0,0,0,.39-1.9v-1.7c0-1.6-.39-2.6-1.2-3q-4.4-2-4.39-3.6c0-.53.73-1,2.2-1.4a57.38,57.38,0,0,1,5.89-1q3.32-.39,7.5-.6,7-8.79,13.8-16.8,7-8.6,10.81-10.6a21.82,21.82,0,0,1,11.6-3.6c1.06,0,1.59.14,1.59.4a.93.93,0,0,1-.8,1,94.33,94.33,0,0,0-13.59,10.8l-12.8,14.6a4.11,4.11,0,0,0-1.2,2.6c0,1.07.8,1.74,2.39,2a19,19,0,0,0,2-.1c.67-.06,1.41-.1,2.2-.1,1.47,0,3.14,0,5,.1s3.8.17,5.8.3c1.2.14,1.81.47,1.81,1,0,1.2-2.2,1.94-6.61,2.2q-4.39,0-15,1.2a16.45,16.45,0,0,0-6.2,2.8,127,127,0,0,0-11.59,17.8,131.2,131.2,0,0,0-8,18q-2.2,6.21-2.21,8.2,0,3.4,3.41,3.4a13.61,13.61,0,0,0,5.8-1.4,16.94,16.94,0,0,0,3.4-1.8c.8-.53,1.73-1.1,2.8-1.7s2.26-1.36,3.59-2.3q7.61-4.59,8.41-4.6c1.33,0,2,.54,2,1.6a3.32,3.32,0,0,1-1.61,2.6l-7.39,5.6a46.58,46.58,0,0,1-5.91,3.6q-3.09,1.61-6.29,3A7.47,7.47,0,0,1,1981.05,1717.8Zm42,1.6a17.94,17.94,0,0,1-10.7-3.2q-4.5-3.2-4.5-7.6a20,20,0,0,1,1-5q5.81-16.59,30.4-38.8l10-3.6q9.6-3.2,10.4-3,7.39,1.2,7.4,6.2,0,9.6-15.4,19-13.8,8.4-24.2,8.4a19.13,19.13,0,0,1-2-.1,17.25,17.25,0,0,1-2-.3q-2,2.8-3.6,5.2a33.3,33.3,0,0,0-2.6,4.6,17.16,17.16,0,0,0-1.6,6.4q0,6.6,5.4,6.6t17.4-4.8q11.6-4.39,15.8-7.8a5.57,5.57,0,0,1,2.8-1c.8,0,1.2.34,1.2,1a4.68,4.68,0,0,1-2,2.6,81.37,81.37,0,0,1-6.9,4.5q-3.9,2.31-8.7,4.9Q2028.46,1719.41,2023.05,1719.4Zm10.6-32q7.2,0,15.2-7.8,7.61-7.59,7.6-12.6c0-1.86-.87-2.86-2.6-3q-8.6-1.39-25.8,21.4A7.54,7.54,0,0,0,2033.65,1687.4Zm73.4,29.2q-8.4,0-12.7-.4a29.88,29.88,0,0,1-4.7-.6q-1.2-1-1.2-1.8,0-2.4,6.6-2.4a94.34,94.34,0,0,0,26.2-4.2,1.07,1.07,0,0,0,.8-1.2q0-2.19-6.2-9t-6.2-10q0-11.79,11.6-20.4a56.15,56.15,0,0,1,34.2-11.4q9,0,9,4,0,3.81-6.4,4.8a11.2,11.2,0,0,1-2.2-.3l-3.2-.7a23.65,23.65,0,0,0-5.6-.8,34.06,34.06,0,0,0-18.6,5.2q-9.79,6.21-9.8,16.8,0,3.4,4.6,10.4c.93,1.47,1.77,2.8,2.5,4s1.37,2.2,1.9,3q1.6,2.61,1.8,3a17.06,17.06,0,0,0,4-.6,4.73,4.73,0,0,1,2-.6c.93,0,1.4.4,1.4,1.2,0,1.2-.8,2.14-2.4,2.8a4.83,4.83,0,0,0-2.8,2.9c-.67,1.54-1.4,2.44-2.2,2.7Q2123.85,1716.6,2107.05,1716.6Zm54.8,1.2a23.49,23.49,0,0,1-7.8-1.8q-7.2-2.79-7.2-8a16.59,16.59,0,0,1,1.6-5.8q1.61-3.39,4.1-8t6.1-10.4l8-13a5,5,0,0,0,.4-1.9v-1.7q0-2.4-1.2-3-4.39-2-4.4-3.6c0-.53.73-1,2.2-1.4a57.61,57.61,0,0,1,5.9-1q3.3-.39,7.5-.6,7-8.79,13.8-16.8,7-8.6,10.8-10.6a21.84,21.84,0,0,1,11.6-3.6c1.07,0,1.6.14,1.6.4a.94.94,0,0,1-.8,1,93.88,93.88,0,0,0-13.6,10.8l-12.8,14.6a4.16,4.16,0,0,0-1.2,2.6c0,1.07.8,1.74,2.4,2a19.13,19.13,0,0,0,2-.1c.67-.06,1.4-.1,2.2-.1,1.47,0,3.13,0,5,.1s3.8.17,5.8.3c1.2.14,1.8.47,1.8,1,0,1.2-2.2,1.94-6.6,2.2q-4.4,0-15,1.2a16.39,16.39,0,0,0-6.2,2.8,127.11,127.11,0,0,0-11.6,17.8,132.42,132.42,0,0,0-8,18q-2.2,6.21-2.2,8.2,0,3.4,3.4,3.4a13.58,13.58,0,0,0,5.8-1.4,16.68,16.68,0,0,0,3.4-1.8c.8-.53,1.73-1.1,2.8-1.7a41.34,41.34,0,0,0,3.6-2.3q7.6-4.59,8.4-4.6c1.33,0,2,.54,2,1.6a3.31,3.31,0,0,1-1.6,2.6l-7.4,5.6a46.46,46.46,0,0,1-5.9,3.6q-3.11,1.61-6.3,3A7.46,7.46,0,0,1,2161.85,1717.8Zm34.6.8q-7.2,0-7.2-7.6,0-11.79,11.4-25c1.46-1.86,3.23-4.1,5.3-6.7s4.43-5.43,7.1-8.5c.26,0-.94-.46-3.6-1.4-1.74-.53-2.6-1.46-2.6-2.8,0-1.6,1.13-2.4,3.4-2.4a51.89,51.89,0,0,0,10.6-1.8c.8-.53,1.63-1.06,2.5-1.6s1.76-1.06,2.7-1.6a8.14,8.14,0,0,1,4.4-1.4,7,7,0,0,1,2.5.5c.86.34,1.83.77,2.9,1.3q2.19,1.2,3.9,2.1a27.5,27.5,0,0,0,2.7,1.3l21.2-.2c2.26,0,3.4.54,3.4,1.6s-1.14,1.74-3.4,2a54.28,54.28,0,0,1-7.6.6q.19.81.3,1.5a9.78,9.78,0,0,1,.1,1.1q0,6.4-7.6,16.4a74.5,74.5,0,0,1-14,14.2q-17.61,13.41-31.6,17.2A22.91,22.91,0,0,1,2196.45,1718.6Zm2-4.8a4.49,4.49,0,0,0,.9-.1c.33-.06.76-.16,1.3-.3q13.2-3.8,29.8-16.4a46.39,46.39,0,0,0,5.9-5.2q2.9-3,5.7-6.4,6.6-8.4,6.6-13.6a5.16,5.16,0,0,0-1.4-3.8h-9a34.9,34.9,0,0,0-7.5.7,28.05,28.05,0,0,0-5.3,1.7q-5.8,4.41-17.2,17.6a92.94,92.94,0,0,0-7.8,11q-5,8.2-5,11v.4Q2195.45,1713.81,2198.45,1713.8Zm55.4,3.8c-.8,0-1.2-.33-1.2-1l.4-1.4a13.9,13.9,0,0,1,1.1-1.8c.46-.66,1-1.33,1.5-2l3.2-4.8,1.6-2.1a34.75,34.75,0,0,0,2.2-3.3l6.2-10a71.72,71.72,0,0,0,7.2-13.2c.13-.8.26-1.76.4-2.9s.26-2.43.4-3.9c.26-.66,2.66-2,7.2-4q6.39-3.2,9-3.2c.66,0,1,.2,1,.6a3.43,3.43,0,0,1-.6,1.4q-3.4,4.61-7.1,10.3t-7.7,12.3l13.2-11q2.4-2,3.9-3.1a19.9,19.9,0,0,0,1.9-1.5q14.79-10.2,26-10.2c.93,0,1.4.94,1.4,2.8a16.87,16.87,0,0,1-1.3,6.1q-1.3,3.3-2.9,3.3a1.12,1.12,0,0,1-.8-.4v-.4a3.19,3.19,0,0,1,.1-.8,5.67,5.67,0,0,0,.1-1.2v-.6c0-.93-.27-1.4-.8-1.4q-17,0-40.8,22a60.11,60.11,0,0,0-5.2,6.2q-3,4-6.8,9.6l-2,4.4-5.4,3Q2255.25,1717.6,2253.85,1717.6Zm71.4,1.8a17.92,17.92,0,0,1-10.7-3.2q-4.5-3.2-4.5-7.6a20,20,0,0,1,1-5q5.79-16.59,30.4-38.8l10-3.6q9.6-3.2,10.4-3,7.4,1.2,7.4,6.2,0,9.6-15.4,19-13.8,8.4-24.2,8.4a19,19,0,0,1-2-.1,16.93,16.93,0,0,1-2-.3q-2,2.8-3.6,5.2a32.3,32.3,0,0,0-2.6,4.6,17.16,17.16,0,0,0-1.6,6.4q0,6.6,5.4,6.6t17.4-4.8q11.59-4.39,15.8-7.8a5.54,5.54,0,0,1,2.8-1c.8,0,1.2.34,1.2,1a4.73,4.73,0,0,1-2,2.6,81.37,81.37,0,0,1-6.9,4.5q-3.9,2.31-8.7,4.9Q2330.64,1719.41,2325.25,1719.4Zm10.6-32q7.2,0,15.2-7.8,7.59-7.59,7.6-12.6c0-1.86-.87-2.86-2.6-3q-8.61-1.39-25.8,21.4A7.54,7.54,0,0,0,2335.85,1687.4Zm-1705.36-8h749.12m0-3.5H630.49v7h749.12Zm-526.3-187.57c-15.38-15.49-23.18-35.24-23.18-58.68V1268.23h17.59v161c0,19,6.21,35,18.46,47.44s27.59,18.78,45.65,18.78,33.34-6.26,45.47-18.61,18.29-28.38,18.29-47.61v-161h17.59v160.68c0,23.66-7.79,43.58-23.17,59.2s-34.38,23.56-56.42,23.56h-3.52C887.79,1511.67,868.69,1503.8,853.31,1488.29Zm175.06-203.83h60.79v253.33h17.59V1284.46h60.09v-16.19H1028.37Zm321.34-16.19h-23.18l-107.27,93v-93H1202v269.52h17.6V1395.73L1355,1536.87l.88.92h23.76l-154.11-161.26Zm65.12,269.52h100.51V1521.6h-82.92V1438h69.22v-16.19h-69.22V1284.46h82.92v-16.19H1414.83Zm272.6-29.17L1570.67,1270l-.82-1.68h-19.32l135.85,279.35,135.86-279.35h-17.92Zm170,29.17H1875V1268.27h-17.59ZM2050.24,1263c-38.12,0-71.35,13.83-98.74,41.1s-41.29,60.33-41.29,98.23a135.53,135.53,0,0,0,18.5,68.43,143.11,143.11,0,0,0,50.41,51.49,131.24,131.24,0,0,0,69,19.41H2052a133.81,133.81,0,0,0,71.14-20.12l1.43-.88v-20.35l-4.69,3.19c-21.41,14.58-44.84,22-69.64,22-33.44,0-62.51-12.23-86.41-36.36s-36-53.38-36-87,12.12-62.76,36-86.78,53-36.18,86.42-36.18c24.79,0,48.22,7.39,69.64,22l4.69,3.19V1284l-1.49-.87C2100.23,1269.76,2075.72,1263,2050.24,1263Zm301.72,5.27v91.91c-9.71,8.44-23.67,11.25-37.2,14l-.92.19c-3.43.69-6.87,1.34-10.29,2-13.21,2.53-26.86,5.15-40.29,9.42a294.2,294.2,0,0,0-85.91,44.23v-161.7h-17.59V1537.8h17.59v-85.51c25.61-21.43,58.7-39.54,91.2-49.87,12.46-4,25-6.36,38.29-8.91q5.2-1,10.42-2l.93-.19c10.95-2.19,22.95-4.61,33.77-10.18V1537.8h17.59V1268.27ZM904.69,1569c-53.22-6.45-98-49-137.5-86.57q-5-4.76-9.87-9.36a1159.62,1159.62,0,0,1-96.48-102.5l117.3-102.26H755l-107.26,93v-93H630.45V1537.8h17.6V1382.53a1177.69,1177.69,0,0,0,97.26,103.23l9.83,9.31c41.46,39.43,88.46,84.12,147.45,91.26a100.21,100.21,0,0,0,12.27.74c43.57,0,80.23-28,101-56H993.2C972.53,1553.74,940.74,1573.32,904.69,1569Z"/></g></g></svg>