<svg xmlns="http://www.w3.org/2000/svg" viewBox="0 0 1739.09 474"><defs><style>.cls-1{fill:#fff;}</style></defs><title>белый на прозрачном</title><g id="Слой_2" data-name="Слой 2"><g id="Слой_1-2" data-name="Слой 1"><path class="cls-1" d="M835.81,474q-18.6,0-30.6-9.6t-12-24.6q0-16.59,14.6-33.6,20.6-24.19,51.6-41,33-17.79,65.6-19.8a32.58,32.58,0,0,1,3.5-.2h3.1q9.79,0,14.6,2.4,8.4-8.4,10.8-8.4a1.24,1.24,0,0,1,1.4,1.4,3.94,3.94,0,0,1-2,3.2l-6.8,6q4.6,4,4.6,12.4,0,13.2-13.2,25-11.4,10.2-20,10.2c-3.2,0-4.8-1.46-4.8-4.4a8.63,8.63,0,0,1,.2-2q3-16.59,25.2-39-5.4-3.6-16.2-3-28.39,1.8-63.8,22.6Q832.41,389,819.81,405q-19.6,25-19.6,40.8,0,22,34,22a141.29,141.29,0,0,0,34-4.2,46.12,46.12,0,0,0,4.8-1.3q2.81-.9,6.4-1.9l8.1-2.7q4.5-1.5,9.9-3.1a131.2,131.2,0,0,0,14.6-5.8q7.8-3.6,16.8-8.2l14.4-7.6q7.2-3.79,14.4-7.8a5.08,5.08,0,0,1,2.4-.8c1.07,0,1.6.4,1.6,1.2q0,2-3,3.6l-15.5,8.8q-6.71,3.81-11.7,6.4-9.79,5.21-18.3,9.2t-15.7,6.8q-18.6,7.2-28.2,9.6A140.28,140.28,0,0,1,835.81,474Zm92.4-83.4q5,0,11.8-8.6,7.61-9.39,7.6-17.8a15,15,0,0,0-3-9.6q-14.21,14.2-18.8,31.6a2.45,2.45,0,0,1-.1.6,1.12,1.12,0,0,0,.1.8Q925.81,390.6,928.21,390.6Zm21.2,66.2c-.93,0-1.2-.4-.8-1.2q7.39-13.8,16.7-28.5t20.9-30.5q19.6-26.4,35.4-45.6.79-1.39,9-4.4,7.61-3.19,10.4-3.2c1.87,0,2.8.67,2.8,2s-1.07,1.8-3.2,1.8-6.47,3.07-12.6,9.2q-7,6.6-33.4,39.4-7.4,9.21-13.5,17.9t-10.9,17.1q48.19-33.19,53.6-33.2,3.4,0,6.6,6a101.19,101.19,0,0,0-20.6,30q-2.8,6.21-2.8,9,0,3.6,3.6,3.6,4.39,0,15.4-5.6l15.2-7.8c.53-.13.8.14.8.8a6.27,6.27,0,0,1-.6,2.4,3.36,3.36,0,0,1-1.4,1.8l-13.4,8.4a54.9,54.9,0,0,1-17.4,7.4q-12.4-4.8-12.4-10.8a4.49,4.49,0,0,1,.1-.9,11,11,0,0,1,.3-1.1,72.55,72.55,0,0,1,4.7-9.3q3.11-5.29,7.5-11.9,7-10.59,6.2-11.4a1.17,1.17,0,0,0-.8-.2q-3.6,0-18.4,10-12.2,8.61-16.8,12.6Q966,443,961.21,452.8,951.61,456.81,949.41,456.8Zm95.6-1.2q-7.2,0-7.2-7.6,0-11.79,11.4-25c1.46-1.86,3.23-4.1,5.3-6.7s4.43-5.43,7.1-8.5c.26,0-.94-.46-3.6-1.4-1.74-.53-2.6-1.46-2.6-2.8,0-1.6,1.13-2.4,3.4-2.4a51.89,51.89,0,0,0,10.6-1.8c.8-.53,1.63-1.06,2.5-1.6s1.76-1.06,2.7-1.6a8.14,8.14,0,0,1,4.4-1.4,7,7,0,0,1,2.5.5c.86.34,1.83.77,2.9,1.3q2.19,1.2,3.9,2.1a27.5,27.5,0,0,0,2.7,1.3l21.2-.2c2.26,0,3.4.54,3.4,1.6s-1.14,1.74-3.4,2a54.28,54.28,0,0,1-7.6.6q.2.81.3,1.5a9.78,9.78,0,0,1,.1,1.1q0,6.4-7.6,16.4a74.5,74.5,0,0,1-14,14.2q-17.61,13.41-31.6,17.2A22.91,22.91,0,0,1,1045,455.6Zm2-4.8a4.49,4.49,0,0,0,.9-.1c.33-.06.76-.16,1.3-.3q13.2-3.79,29.8-16.4a46.39,46.39,0,0,0,5.9-5.2q2.89-3,5.7-6.4,6.6-8.4,6.6-13.6a5.16,5.16,0,0,0-1.4-3.8h-9a34.9,34.9,0,0,0-7.5.7,28.05,28.05,0,0,0-5.3,1.7q-5.8,4.41-17.2,17.6a92.94,92.94,0,0,0-7.8,11q-5,8.21-5,11v.4Q1044,450.81,1047,450.8Zm69,4.6q-12.81,0-12.8-10.4a20.58,20.58,0,0,1,1.2-6.4q3.6-11,17-22.6a108.6,108.6,0,0,1,27.2-18.4,40.11,40.11,0,0,1,17.4-4.2c3.06,0,4.6.8,4.6,2.4,0,1.07-.94,2.54-2.8,4.4q-2.61,2.4-3.6,1.8a15.63,15.63,0,0,0-7-1.8,16,16,0,0,0-7.2,1.8,91.78,91.78,0,0,0-23,16.8q-10.2,10.6-13.6,20.6a20,20,0,0,0-1,5c0,4,1.66,6,5,6q5.79,0,17.1-5.1a299.18,299.18,0,0,0,27.9-14.9c.4-.13.66.07.8.6v.6a4.88,4.88,0,0,1-1.4,3.6,50,50,0,0,1-6.9,4.6q-4.5,2.61-11.1,6-16.41,8.4-23.8,9.4a9.76,9.76,0,0,1-2,.2Zm48.79.2q-7.2,0-7.2-7.6,0-11.79,11.4-25l5.3-6.7q3.1-3.9,7.1-8.5c.27,0-.93-.46-3.6-1.4-1.73-.53-2.6-1.46-2.6-2.8,0-1.6,1.14-2.4,3.4-2.4a51.68,51.68,0,0,0,10.6-1.8c.8-.53,1.64-1.06,2.5-1.6s1.77-1.06,2.7-1.6a8.19,8.19,0,0,1,4.4-1.4,7,7,0,0,1,2.5.5c.87.34,1.84.77,2.9,1.3l3.9,2.1a29.89,29.89,0,0,0,2.7,1.3l21.2-.2c2.27,0,3.4.54,3.4,1.6s-1.13,1.74-3.4,2a54.16,54.16,0,0,1-7.6.6,12.41,12.41,0,0,1,.3,1.5,7.86,7.86,0,0,1,.1,1.1q0,6.4-7.6,16.4a74.21,74.21,0,0,1-14,14.2q-17.6,13.41-31.6,17.2A22.86,22.86,0,0,1,1164.8,455.6Zm2-4.8a4.34,4.34,0,0,0,.9-.1c.34-.06.77-.16,1.3-.3q13.2-3.79,29.8-16.4a45.72,45.72,0,0,0,5.9-5.2q2.91-3,5.7-6.4,6.6-8.4,6.6-13.6a5.12,5.12,0,0,0-1.4-3.8h-9a35,35,0,0,0-7.5.7,28.53,28.53,0,0,0-5.3,1.7q-5.8,4.41-17.2,17.6a94.11,94.11,0,0,0-7.8,11q-5,8.21-5,11v.4Q1163.8,450.81,1166.8,450.8Zm71.4,5q-2.6.6-6.6-2.2a12.24,12.24,0,0,1-5.2-8.8q4-11.79,20.6-35.2t45.6-58.6q.81-1.39,9-4.4,7.61-3.19,10.4-3.2c1.87,0,2.8.67,2.8,2s-1.07,1.8-3.2,1.8-6.46,3.07-12.6,9.2q-11.2,10.8-35.2,42.4Q1236.2,435,1236.2,444a10.05,10.05,0,0,0,1,4.2,3.33,3.33,0,0,0,3.2,2.2,16.16,16.16,0,0,0,4.7-1.4q3.5-1.39,7.7-3.4t8-4.1q3.79-2.1,5.6-3.3c0,2.67-.33,4.2-1,4.6-1.07.54-2.1,1.07-3.1,1.6s-2,1.14-3.1,1.8-1.93,1.1-3,1.7-2.13,1.24-3.2,1.9A53.68,53.68,0,0,1,1238.2,455.8Zm31.8-.6q-4.61,0-4.6-5.4,0-3.8,2.8-9.8,7.2-13.39,23.8-27.6,20.2-16.8,32.8-16.8,7.8,0,10.8,3a16.24,16.24,0,0,1,9.8-3.4c.67,0,1,.2,1,.6a1.12,1.12,0,0,1-.4.8,76.34,76.34,0,0,0-6.3,8.6,142.51,142.51,0,0,0-7.5,13.4q-9.4,18.4-9.4,27a7.9,7.9,0,0,0,.2,2.4v.2a5.36,5.36,0,0,1-1.2,2.9c-.8,1.14-1.6,1.7-2.4,1.7-1.6,0-2.4-2.66-2.4-8a57.48,57.48,0,0,1,6.2-26l-17,14.2a200.25,200.25,0,0,1-17.3,13.1,104.93,104.93,0,0,1-13.3,7.7A12.34,12.34,0,0,1,1270,455.2Zm9-9.2a5.22,5.22,0,0,0,2.6-.8,58.53,58.53,0,0,0,9-5.2,147.55,147.55,0,0,0,13.8-10.4,189.28,189.28,0,0,0,15.3-13.9q6.1-6.3,8.9-9.5a4.68,4.68,0,0,0-4.8-3.4q-7,0-22.4,12-17.4,14-22.8,23a12.37,12.37,0,0,0-1.8,6A1.94,1.94,0,0,0,1279,446Zm71.6,8.8a23.49,23.49,0,0,1-7.8-1.8q-7.2-2.79-7.2-8a16.59,16.59,0,0,1,1.6-5.8q1.6-3.39,4.1-8t6.1-10.4l8-13a5,5,0,0,0,.4-1.9v-1.7q0-2.4-1.2-3-4.39-2-4.4-3.6c0-.53.73-1,2.2-1.4a57.61,57.61,0,0,1,5.9-1q3.3-.39,7.5-.6,7-8.79,13.8-16.8,7-8.6,10.8-10.6a21.84,21.84,0,0,1,11.6-3.6c1.07,0,1.6.14,1.6.4a.94.94,0,0,1-.8,1,93.88,93.88,0,0,0-13.6,10.8l-12.8,14.6a4.16,4.16,0,0,0-1.2,2.6c0,1.07.8,1.74,2.4,2a19.13,19.13,0,0,0,2-.1c.67-.06,1.4-.1,2.2-.1,1.47,0,3.13,0,5,.1s3.8.17,5.8.3c1.2.14,1.8.47,1.8,1,0,1.2-2.2,1.94-6.6,2.2q-4.4,0-15,1.2a16.39,16.39,0,0,0-6.2,2.8,127.11,127.11,0,0,0-11.6,17.8,132.42,132.42,0,0,0-8,18q-2.2,6.21-2.2,8.2,0,3.41,3.4,3.4a13.58,13.58,0,0,0,5.8-1.4,16.68,16.68,0,0,0,3.4-1.8c.8-.53,1.73-1.1,2.8-1.7a41.34,41.34,0,0,0,3.6-2.3q7.6-4.59,8.4-4.6c1.33,0,2,.54,2,1.6a3.31,3.31,0,0,1-1.6,2.6l-7.4,5.6a46.46,46.46,0,0,1-5.9,3.6q-3.1,1.61-6.3,3A7.46,7.46,0,0,1,1350.6,454.8Zm42,1.6a17.92,17.92,0,0,1-10.7-3.2q-4.5-3.19-4.5-7.6a20,20,0,0,1,1-5q5.79-16.59,30.4-38.8l10-3.6q9.6-3.19,10.4-3,7.4,1.2,7.4,6.2,0,9.6-15.4,19-13.8,8.4-24.2,8.4a19,19,0,0,1-2-.1,16.93,16.93,0,0,1-2-.3q-2,2.81-3.6,5.2a32.3,32.3,0,0,0-2.6,4.6,17.16,17.16,0,0,0-1.6,6.4q0,6.6,5.4,6.6t17.4-4.8q11.6-4.39,15.8-7.8a5.54,5.54,0,0,1,2.8-1c.8,0,1.2.34,1.2,1a4.73,4.73,0,0,1-2,2.6,81.37,81.37,0,0,1-6.9,4.5q-3.9,2.31-8.7,4.9Q1398,456.41,1392.6,456.4Zm10.6-32q7.2,0,15.2-7.8Q1426,409,1426,404c0-1.86-.87-2.86-2.6-3q-8.61-1.39-25.8,21.4A7.54,7.54,0,0,0,1403.2,424.4Zm73.4,29.2q-8.4,0-12.7-.4a29.65,29.65,0,0,1-4.7-.6q-1.2-1-1.2-1.8,0-2.4,6.6-2.4a94.4,94.4,0,0,0,26.2-4.2,1.07,1.07,0,0,0,.8-1.2q0-2.19-6.2-9t-6.2-10q0-11.79,11.6-20.4a56.11,56.11,0,0,1,34.2-11.4q9,0,9,4c0,2.54-2.14,4.14-6.4,4.8a11.1,11.1,0,0,1-2.2-.3l-3.2-.7a23.72,23.72,0,0,0-5.6-.8,34,34,0,0,0-18.6,5.2q-9.81,6.21-9.8,16.8,0,3.41,4.6,10.4,1.4,2.2,2.5,4c.73,1.2,1.36,2.2,1.9,3q1.59,2.61,1.8,3a17.14,17.14,0,0,0,4-.6,4.69,4.69,0,0,1,2-.6c.93,0,1.4.4,1.4,1.2,0,1.2-.8,2.14-2.4,2.8a4.81,4.81,0,0,0-2.8,2.9c-.67,1.54-1.4,2.44-2.2,2.7Q1493.39,453.6,1476.6,453.6Zm54.79,1.2a23.54,23.54,0,0,1-7.8-1.8c-4.79-1.86-7.2-4.53-7.2-8a16.66,16.66,0,0,1,1.61-5.8q1.59-3.39,4.09-8t6.11-10.4l8-13a5.2,5.2,0,0,0,.39-1.9v-1.7c0-1.6-.39-2.6-1.2-3q-4.4-2-4.39-3.6c0-.53.73-1,2.2-1.4a57.38,57.38,0,0,1,5.89-1q3.32-.39,7.5-.6,7-8.79,13.8-16.8,7-8.6,10.81-10.6a21.82,21.82,0,0,1,11.6-3.6c1.06,0,1.59.14,1.59.4a.93.93,0,0,1-.8,1A94.33,94.33,0,0,0,1570,375.8l-12.8,14.6a4.11,4.11,0,0,0-1.2,2.6c0,1.07.8,1.74,2.39,2a19,19,0,0,0,2-.1c.67-.06,1.41-.1,2.2-.1,1.47,0,3.14,0,5,.1s3.8.17,5.8.3c1.2.14,1.81.47,1.81,1,0,1.2-2.2,1.94-6.61,2.2q-4.39,0-15,1.2a16.45,16.45,0,0,0-6.2,2.8,127,127,0,0,0-11.59,17.8,131.2,131.2,0,0,0-8,18q-2.21,6.21-2.21,8.2,0,3.41,3.41,3.4a13.61,13.61,0,0,0,5.8-1.4,16.94,16.94,0,0,0,3.4-1.8c.8-.53,1.73-1.1,2.8-1.7s2.26-1.36,3.59-2.3q7.61-4.59,8.41-4.6c1.33,0,2,.54,2,1.6a3.32,3.32,0,0,1-1.61,2.6l-7.39,5.6a46.58,46.58,0,0,1-5.91,3.6q-3.09,1.61-6.29,3A7.47,7.47,0,0,1,1531.39,454.8Zm34.6.8q-7.2,0-7.2-7.6,0-11.79,11.4-25l5.3-6.7q3.1-3.9,7.1-8.5c.27,0-.93-.46-3.6-1.4-1.73-.53-2.6-1.46-2.6-2.8,0-1.6,1.13-2.4,3.4-2.4a51.68,51.68,0,0,0,10.6-1.8c.8-.53,1.63-1.06,2.5-1.6s1.77-1.06,2.7-1.6a8.17,8.17,0,0,1,4.4-1.4,7,7,0,0,1,2.5.5c.87.34,1.83.77,2.9,1.3l3.9,2.1a28.64,28.64,0,0,0,2.7,1.3l21.2-.2c2.27,0,3.4.54,3.4,1.6s-1.13,1.74-3.4,2a54.16,54.16,0,0,1-7.6.6q.2.81.3,1.5a7.86,7.86,0,0,1,.1,1.1q0,6.4-7.6,16.4a74.21,74.21,0,0,1-14,14.2q-17.6,13.41-31.6,17.2A22.86,22.86,0,0,1,1566,455.6Zm2-4.8a4.34,4.34,0,0,0,.9-.1c.33-.06.77-.16,1.3-.3q13.2-3.79,29.8-16.4a45.72,45.72,0,0,0,5.9-5.2q2.89-3,5.7-6.4,6.6-8.4,6.6-13.6a5.16,5.16,0,0,0-1.4-3.8h-9a35,35,0,0,0-7.5.7,28.29,28.29,0,0,0-5.3,1.7q-5.81,4.41-17.2,17.6a92.94,92.94,0,0,0-7.8,11q-5,8.21-5,11v.4Q1565,450.81,1568,450.8Zm55.4,3.8c-.8,0-1.2-.33-1.2-1l.4-1.4a15.11,15.11,0,0,1,1.1-1.8c.47-.66,1-1.33,1.5-2l3.2-4.8,1.6-2.1a32.93,32.93,0,0,0,2.2-3.3l6.2-10a70.54,70.54,0,0,0,7.2-13.2c.13-.8.27-1.76.4-2.9s.27-2.43.4-3.9c.27-.66,2.67-2,7.2-4q6.4-3.19,9-3.2c.67,0,1,.2,1,.6a3.43,3.43,0,0,1-.6,1.4q-3.4,4.61-7.1,10.3t-7.7,12.3l13.2-11q2.4-2,3.9-3.1a19.9,19.9,0,0,0,1.9-1.5q14.8-10.2,26-10.2c.93,0,1.4.94,1.4,2.8a16.67,16.67,0,0,1-1.3,6.1c-.87,2.2-1.83,3.3-2.9,3.3a1.14,1.14,0,0,1-.8-.4v-.4a3.19,3.19,0,0,1,.1-.8,5.06,5.06,0,0,0,.1-1.2v-.6c0-.93-.27-1.4-.8-1.4q-17,0-40.8,22a60.11,60.11,0,0,0-5.2,6.2q-3,4-6.8,9.6l-2,4.4-5.4,3Q1624.79,454.61,1623.39,454.6Zm71.4,1.8a17.94,17.94,0,0,1-10.7-3.2q-4.5-3.19-4.5-7.6a20,20,0,0,1,1-5q5.81-16.59,30.4-38.8l10-3.6q9.6-3.19,10.4-3,7.39,1.2,7.4,6.2,0,9.6-15.4,19-13.8,8.4-24.2,8.4a19.13,19.13,0,0,1-2-.1,17.25,17.25,0,0,1-2-.3q-2,2.81-3.6,5.2a33.3,33.3,0,0,0-2.6,4.6,17.16,17.16,0,0,0-1.6,6.4q0,6.6,5.4,6.6t17.4-4.8q11.6-4.39,15.8-7.8a5.57,5.57,0,0,1,2.8-1c.8,0,1.2.34,1.2,1a4.68,4.68,0,0,1-2,2.6,81.37,81.37,0,0,1-6.9,4.5q-3.9,2.31-8.7,4.9Q1700.2,456.41,1694.79,456.4Zm10.6-32q7.2,0,15.2-7.8,7.61-7.59,7.6-12.6c0-1.86-.87-2.86-2.6-3q-8.6-1.39-25.8,21.4A7.54,7.54,0,0,0,1705.39,424.4ZM0,416.36H749.16m0-3.5H0v7H749.16ZM222.85,225.29c-15.38-15.49-23.18-35.24-23.18-58.68V5.23h17.6v161c0,19,6.21,35,18.46,47.44s27.59,18.78,45.64,18.78,33.35-6.26,45.48-18.6,18.29-28.39,18.29-47.62V5.23h17.59V165.91c0,23.66-7.8,43.58-23.17,59.2s-34.38,23.56-56.43,23.56h-3.51C257.34,248.67,238.24,240.8,222.85,225.29ZM397.92,21.46H458.7V274.79h17.6V21.46h60.08V5.27H397.92ZM719.26,5.27H696.07L588.81,98.32v-93H571.57V274.79h17.59v-142L724.54,273.87l.89.92h23.76L595.07,113.53Zm65.11,269.52H884.89V258.6H802V175h69.22V158.82H802V21.46h82.92V5.27H784.37ZM1057,245.63,940.21,7l-.82-1.68H920.08l135.85,279.36L1191.78,5.27h-17.91Zm170,29.16h17.59V5.27H1227ZM1419.79,0c-38.13,0-71.35,13.83-98.74,41.11s-41.29,60.32-41.29,98.22a135.62,135.62,0,0,0,18.49,68.43,143,143,0,0,0,50.41,51.49,131.27,131.27,0,0,0,69,19.41h3.87a133.84,133.84,0,0,0,71.14-20.12l1.42-.88V237.31l-4.69,3.19c-21.4,14.58-44.83,22-69.63,22-33.44,0-62.52-12.23-86.42-36.36s-36-53.38-36-87,12.12-62.76,36-86.78,53-36.18,86.42-36.18c24.79,0,48.22,7.39,69.63,22l4.69,3.19V21l-1.49-.87C1469.77,6.76,1445.27,0,1419.79,0ZM1721.5,5.27V97.18c-9.71,8.44-23.67,11.25-37.19,13.95l-.93.19c-3.43.69-6.86,1.34-10.28,2-13.21,2.53-26.86,5.15-40.3,9.42A294.14,294.14,0,0,0,1546.9,167V5.27h-17.6V274.8h17.6V189.29c25.6-21.43,58.69-39.54,91.2-49.87,12.45-4,25-6.36,38.29-8.91q5.2-1,10.42-2l.93-.19c11-2.19,23-4.61,33.76-10.18V274.8h17.59V5.27ZM274.24,306c-53.23-6.45-98-49-137.5-86.57q-5-4.75-9.87-9.36a1158.15,1158.15,0,0,1-96.48-102.5L147.69,5.27H124.5L17.24,98.32v-93H0V274.8H17.6V119.53a1176.19,1176.19,0,0,0,97.26,103.23q4.85,4.58,9.82,9.31c41.47,39.43,88.47,84.12,147.46,91.26a100.21,100.21,0,0,0,12.27.74c43.57,0,80.23-28,101-56H362.75C342.08,290.74,310.28,310.32,274.24,306Z"/></g></g></svg>